<svg width="43" height="48" viewBox="0 0 43 48" fill="none" xmlns="http://www.w3.org/2000/svg">
<path fill-rule="evenodd" clip-rule="evenodd" d="M32.8103 0L21.0609 0.0214633V29.0799V29.1318H21.0611C21.0891 32.3429 23.7084 34.9374 26.9356 34.9374C30.1627 34.9374 32.7821 32.3429 32.81 29.1318H32.8103V29.0799V0Z" fill="#D9D9D9"/>
<path fill-rule="evenodd" clip-rule="evenodd" d="M21.0609 24.8604C27.6131 24.4846 32.8103 19.0678 32.8103 12.4406C32.8103 5.56985 27.2241 0 20.3331 0C13.4421 0 7.8559 5.56985 7.8559 12.4406V34.9374V44.6307V44.6825H7.85629C7.88399 46.5194 9.3817 48 11.2252 48H16.028C17.8715 48 19.3692 46.5194 19.3969 44.6825H19.3973V44.6307V34.9374H21.0609V24.8604Z" fill="#010101"/>
<path fill-rule="evenodd" clip-rule="evenodd" d="M21.0609 0.0214633L32.8103 0V29.0799V29.1318H32.81C32.7823 32.3256 30.1908 34.9095 26.9876 34.9371V34.9374H26.9356H21.0609V29.136H21.0612C21.0612 29.1346 21.0612 29.1332 21.0611 29.1318H21.0609V29.0799V0.0214633Z" fill="black"/>
<path d="M20.5609 24C20.5609 28.3653 19.5146 31.7652 17.4498 34.0699C15.3936 36.3651 12.2577 37.6511 7.90788 37.6511C5.63704 37.6511 3.99146 37.9431 2.80117 38.2419C2.30388 38.3668 1.88586 38.493 1.5466 38.5954C1.48243 38.6148 1.42108 38.6333 1.36255 38.6508C0.971346 38.7678 0.752737 38.8229 0.614575 38.8284C0.608529 38.8286 0.603075 38.8287 0.598178 38.8287C0.569594 38.7562 0.532136 38.5901 0.513893 38.2391C0.490698 37.7928 0.500119 37.186 0.513118 36.3489C0.523561 35.6763 0.536313 34.855 0.536313 33.8488C0.536313 29.5408 2.40037 24.6307 5.37058 20.7967C8.34458 16.9578 12.3528 14.2883 16.5899 14.2883C18.8312 14.2883 20.1432 14.376 20.8931 14.6127C21.2539 14.7266 21.4254 14.858 21.5155 14.9786C21.6038 15.0968 21.6622 15.2692 21.6633 15.5679C21.6643 15.8739 21.6056 16.261 21.503 16.7702C21.4563 17.0019 21.4023 17.2511 21.3432 17.5234L21.3281 17.5931C21.2634 17.8913 21.1937 18.2144 21.1238 18.5618C20.8436 19.9552 20.5609 21.7376 20.5609 24Z" fill="#FBFBFB" stroke="black"/>
<mask id="path-5-inside-1_98_659" fill="white">
<path fill-rule="evenodd" clip-rule="evenodd" d="M43 14.2031H32.8103V0.000244141C38.4427 0.0390644 43 6.38302 43 14.2031Z"/>
</mask>
<path fill-rule="evenodd" clip-rule="evenodd" d="M43 14.2031H32.8103V0.000244141C38.4427 0.0390644 43 6.38302 43 14.2031Z" fill="#FBFBFB"/>
<path d="M43 14.2031H44V15.2031H43V14.2031ZM32.8103 14.2031V15.2031H31.8103V14.2031H32.8103ZM32.8103 0.000244141H31.8103V-1.00667L32.8172 -0.999732L32.8103 0.000244141ZM43 15.2031H32.8103V13.2031H43V15.2031ZM33.8103 0.000244141V14.2031H31.8103V0.000244141H33.8103ZM32.8172 -0.999732C36.0339 -0.977561 38.8527 0.846012 40.8297 3.60061C42.8079 6.35684 44 10.1071 44 14.2031H42C42 10.479 40.9134 7.14725 39.2049 4.76679C37.4952 2.38469 35.2191 1.01687 32.8034 1.00022L32.8172 -0.999732Z" fill="black" mask="url(#path-5-inside-1_98_659)"/>
<path d="M25.3239 8.60464C25.3239 9.46348 24.6257 10.1597 23.7643 10.1597C22.9029 10.1597 22.2047 9.46348 22.2047 8.60464C22.2047 7.74579 22.9029 7.04956 23.7643 7.04956C24.6257 7.04956 25.3239 7.74579 25.3239 8.60464Z" fill="#FBFBFB"/>
<path d="M25.3239 8.60464C25.3239 9.46348 24.6257 10.1597 23.7643 10.1597C22.9029 10.1597 22.2047 9.46348 22.2047 8.60464C22.2047 7.74579 22.9029 7.04956 23.7643 7.04956C24.6257 7.04956 25.3239 7.74579 25.3239 8.60464Z" stroke="black"/>
</svg>
