<svg width="108" height="48" viewBox="0 0 108 48" fill="none" xmlns="http://www.w3.org/2000/svg">
<g clip-path="url(#clip0_133_264)">
<rect x="2.5" y="34.5" width="102" height="2" rx="1" stroke="black"/>
<path fill-rule="evenodd" clip-rule="evenodd" d="M82.0758 14L75.2448 14.0125V30.9633V30.9935H75.2449C75.2611 32.8667 76.784 34.3801 78.6603 34.3801C80.5365 34.3801 82.0594 32.8667 82.0756 30.9935H82.0758V30.9633V14Z" fill="white"/>
<path fill-rule="evenodd" clip-rule="evenodd" d="M75.2447 28.5019C79.0542 28.2827 82.0757 25.1229 82.0757 21.257C82.0757 17.2491 78.8279 14 74.8216 14C70.8152 14 67.5674 17.2491 67.5674 21.257V34.3801V40.0346V40.0648H67.5676C67.5838 41.1363 68.4574 42 69.5328 42H72.3121C73.3874 42 74.2611 41.1363 74.2773 40.0648H74.2775V40.0346V34.3801H75.2447V28.5019Z" fill="black"/>
<path fill-rule="evenodd" clip-rule="evenodd" d="M75.2448 14.0125L82.0758 14V30.9633V30.9935H82.0756C82.0595 32.8566 80.5528 34.3638 78.6905 34.38V34.3801H78.6603H75.2448V30.996H75.2449C75.2449 30.9952 75.2449 30.9944 75.2449 30.9935H75.2448V30.9633V14.0125Z" fill="black"/>
<path d="M74.7447 28C74.7447 30.5168 74.1432 32.4429 72.9888 33.7357C71.8432 35.0188 70.0839 35.7548 67.5976 35.7548C66.2581 35.7548 65.2841 35.9278 64.5772 36.1059C64.2829 36.18 64.0346 36.2552 63.8373 36.315C63.8004 36.3262 63.7652 36.3368 63.7318 36.3468C63.6414 36.374 63.571 36.394 63.5158 36.4085C63.5129 36.3767 63.5101 36.3393 63.5078 36.2954C63.4946 36.0403 63.4999 35.6976 63.5074 35.2187C63.5136 34.8273 63.5211 34.345 63.5211 33.7451C63.5211 31.2856 64.5846 28.465 66.2884 26.2584C67.9961 24.0467 70.2719 22.5432 72.6453 22.5432C73.9552 22.5432 74.6842 22.5961 75.0837 22.7226C75.2692 22.7814 75.3239 22.8387 75.3409 22.8616C75.3562 22.8822 75.3851 22.9334 75.3856 23.082C75.3862 23.2379 75.356 23.4458 75.2965 23.7418C75.2697 23.8753 75.2386 24.0192 75.2042 24.1784L75.1954 24.2188C75.1578 24.3928 75.117 24.5827 75.076 24.787C74.9114 25.6081 74.7447 26.6622 74.7447 28Z" fill="white" stroke="black"/>
<mask id="path-6-inside-1_133_264" fill="white">
<path fill-rule="evenodd" clip-rule="evenodd" d="M88 22.285H82.0758V14C85.3504 14.0226 88 17.7233 88 22.285Z"/>
</mask>
<path fill-rule="evenodd" clip-rule="evenodd" d="M88 22.285H82.0758V14C85.3504 14.0226 88 17.7233 88 22.285Z" fill="white"/>
<path d="M88 22.285H89V23.285H88V22.285ZM82.0758 22.285V23.285H81.0758V22.285H82.0758ZM82.0758 14H81.0758V12.9931L82.0827 13L82.0758 14ZM88 23.285H82.0758V21.285H88V23.285ZM83.0758 14V22.285H81.0758V14H83.0758ZM82.0827 13C84.122 13.0141 85.8744 14.1743 87.0792 15.8585C88.2853 17.5445 89 19.8189 89 22.285H87C87 20.1894 86.3899 18.3326 85.4525 17.0222C84.5139 15.7099 83.3042 15.0085 82.0688 15L82.0827 13Z" fill="black" mask="url(#path-6-inside-1_133_264)"/>
<ellipse cx="76.8164" cy="19.0194" rx="0.906773" ry="0.907127" fill="white"/>
<path d="M9.072 34.36C6.984 34.36 5.34 33.832 4.14 32.776C2.94 31.696 2.34 30.244 2.34 28.42C2.34 26.572 2.94 25.12 4.14 24.064C5.34 23.008 6.96 22.48 9 22.48H15.12V20.5C15.12 19.276 14.748 18.34 14.004 17.692C13.284 17.02 12.252 16.684 10.908 16.684C9.732 16.684 8.748 16.936 7.956 17.44C7.164 17.92 6.708 18.58 6.588 19.42H3.348C3.564 17.716 4.368 16.36 5.76 15.352C7.152 14.344 8.892 13.84 10.98 13.84C13.26 13.84 15.06 14.428 16.38 15.604C17.7 16.78 18.36 18.376 18.36 20.392V34H15.192V30.22H14.652L15.192 29.68C15.192 31.12 14.628 32.26 13.5 33.1C12.396 33.94 10.92 34.36 9.072 34.36ZM9.864 31.804C11.4 31.804 12.66 31.42 13.644 30.652C14.628 29.884 15.12 28.9 15.12 27.7V24.892H9.072C7.992 24.892 7.14 25.192 6.516 25.792C5.892 26.392 5.58 27.208 5.58 28.24C5.58 29.344 5.952 30.22 6.696 30.868C7.464 31.492 8.52 31.804 9.864 31.804ZM27.3819 40.48V37.528H33.6819C34.6899 37.528 35.4219 37.3 35.8779 36.844C36.3579 36.388 36.5979 35.68 36.5979 34.72V32.2L36.6699 28.6H36.0219L36.6339 28.06C36.6339 29.5 36.1539 30.64 35.1939 31.48C34.2339 32.32 32.9499 32.74 31.3419 32.74C29.3019 32.74 27.6939 32.08 26.5179 30.76C25.3419 29.416 24.7539 27.616 24.7539 25.36V21.184C24.7539 18.928 25.3419 17.14 26.5179 15.82C27.6939 14.5 29.3019 13.84 31.3419 13.84C32.9499 13.84 34.2339 14.26 35.1939 15.1C36.1539 15.94 36.6339 17.08 36.6339 18.52L36.0219 17.98H36.6339V14.2H39.8379V34.72C39.8379 36.496 39.2859 37.9 38.1819 38.932C37.1019 39.964 35.5899 40.48 33.6459 40.48H27.3819ZM32.3139 29.932C33.6579 29.932 34.7139 29.512 35.4819 28.672C36.2499 27.832 36.6339 26.668 36.6339 25.18V21.4C36.6339 19.912 36.2499 18.748 35.4819 17.908C34.7139 17.068 33.6579 16.648 32.3139 16.648C30.9459 16.648 29.8779 17.056 29.1099 17.872C28.3659 18.688 27.9939 19.864 27.9939 21.4V25.18C27.9939 26.716 28.3659 27.892 29.1099 28.708C29.8779 29.524 30.9459 29.932 32.3139 29.932ZM52.2439 34.36C50.1559 34.36 48.5119 33.832 47.3119 32.776C46.1119 31.696 45.5119 30.244 45.5119 28.42C45.5119 26.572 46.1119 25.12 47.3119 24.064C48.5119 23.008 50.1319 22.48 52.1719 22.48H58.2919V20.5C58.2919 19.276 57.9199 18.34 57.1759 17.692C56.4559 17.02 55.4239 16.684 54.0799 16.684C52.9039 16.684 51.9199 16.936 51.1279 17.44C50.3359 17.92 49.8799 18.58 49.7599 19.42H46.5199C46.7359 17.716 47.5399 16.36 48.9319 15.352C50.3239 14.344 52.0639 13.84 54.1519 13.84C56.4319 13.84 58.2319 14.428 59.5519 15.604C60.8719 16.78 61.5319 18.376 61.5319 20.392V34H58.3639V30.22H57.8239L58.3639 29.68C58.3639 31.12 57.7999 32.26 56.6719 33.1C55.5679 33.94 54.0919 34.36 52.2439 34.36ZM53.0359 31.804C54.5719 31.804 55.8319 31.42 56.8159 30.652C57.7999 29.884 58.2919 28.9 58.2919 27.7V24.892H52.2439C51.1639 24.892 50.3119 25.192 49.6879 25.792C49.0639 26.392 48.7519 27.208 48.7519 28.24C48.7519 29.344 49.1239 30.22 49.8679 30.868C50.6359 31.492 51.6919 31.804 53.0359 31.804ZM96.5318 34.288C95.1878 34.288 94.0118 34.084 93.0038 33.676C92.0198 33.244 91.2278 32.644 90.6278 31.876C90.0518 31.108 89.7038 30.196 89.5838 29.14H92.8238C92.9678 29.836 93.3518 30.388 93.9758 30.796C94.6238 31.204 95.4758 31.408 96.5318 31.408H98.0438C99.3158 31.408 100.264 31.156 100.888 30.652C101.512 30.124 101.824 29.428 101.824 28.564C101.824 27.724 101.536 27.064 100.96 26.584C100.408 26.08 99.5798 25.744 98.4758 25.576L95.8118 25.144C93.8678 24.808 92.4158 24.208 91.4558 23.344C90.5198 22.456 90.0518 21.172 90.0518 19.492C90.0518 17.716 90.6158 16.348 91.7438 15.388C92.8718 14.404 94.5638 13.912 96.8198 13.912H98.1878C100.084 13.912 101.608 14.356 102.76 15.244C103.912 16.132 104.608 17.332 104.848 18.844H101.608C101.464 18.22 101.104 17.728 100.528 17.368C99.9518 16.984 99.1718 16.792 98.1878 16.792H96.8198C95.5958 16.792 94.6958 17.02 94.1198 17.476C93.5678 17.932 93.2918 18.616 93.2918 19.528C93.2918 20.344 93.5318 20.944 94.0118 21.328C94.4918 21.712 95.2478 21.988 96.2798 22.156L98.9438 22.588C101.08 22.924 102.628 23.548 103.588 24.46C104.572 25.372 105.064 26.692 105.064 28.42C105.064 30.244 104.476 31.684 103.3 32.74C102.148 33.772 100.396 34.288 98.0438 34.288H96.5318Z" fill="black"/>
</g>
<defs>
<clipPath id="clip0_133_264">
<rect width="108" height="48" fill="white"/>
</clipPath>
</defs>
</svg>
